<?xml version="1.0" encoding="UTF-8"?>
<svg version="1.1" xmlns="http://www.w3.org/2000/svg" width="96" height="96">
<path d="M0 0 C31.68 0 63.36 0 96 0 C96 31.68 96 63.36 96 96 C64.32 96 32.64 96 0 96 C0 64.32 0 32.64 0 0 Z " fill="#DAD5D4" transform="translate(0,0)"/>
<path d="M0 0 C3.76605171 2.13433878 5.65509627 4.05122632 7.01953125 8.14453125 C7.42547707 16.53407825 7.84981216 27.21426813 2.33203125 34.01953125 C-0.41055592 36.9969381 -0.41055592 36.9969381 0.375 40.83984375 C0.58769531 41.93039063 0.80039062 43.0209375 1.01953125 44.14453125 C2.57800781 44.52544922 2.57800781 44.52544922 4.16796875 44.9140625 C8.45760044 45.96845109 12.73939556 47.05232313 17.01953125 48.14453125 C18.57800781 48.53705078 18.57800781 48.53705078 20.16796875 48.9375 C24.72820467 50.17684339 28.15517522 51.1083932 31.01953125 55.14453125 C31.01953125 55.80453125 31.01953125 56.46453125 31.01953125 57.14453125 C31.67953125 57.14453125 32.33953125 57.14453125 33.01953125 57.14453125 C35.01484293 60.13749878 35.47596359 61.7488805 36.08203125 65.20703125 C36.69736215 68.79240177 36.69736215 68.79240177 38.01953125 72.14453125 C38.01953125 75.77453125 38.01953125 79.40453125 38.01953125 83.14453125 C7.32953125 83.14453125 -23.36046875 83.14453125 -54.98046875 83.14453125 C-54.98046875 62.30426503 -54.98046875 62.30426503 -48.98046875 56.14453125 C-45.7734375 54.44921875 -45.7734375 54.44921875 -42.16796875 53.01953125 C-40.98589844 52.54257813 -39.80382812 52.065625 -38.5859375 51.57421875 C-37.39613281 51.10242187 -36.20632812 50.630625 -34.98046875 50.14453125 C-28.40870499 47.54057147 -28.40870499 47.54057147 -23.98046875 42.14453125 C-23.65346203 38.4166547 -23.49925194 34.64558916 -24.98046875 31.14453125 C-26.46546875 30.64953125 -26.46546875 30.64953125 -27.98046875 30.14453125 C-28.96403563 25.97836585 -29.21114871 21.9832051 -29.29296875 17.70703125 C-29.33035156 16.42957031 -29.36773438 15.15210937 -29.40625 13.8359375 C-28.81110334 8.67617972 -26.73173861 5.74790116 -22.9453125 2.28125 C-21.94177734 1.56388672 -21.94177734 1.56388672 -20.91796875 0.83203125 C-19.91056641 0.09533203 -19.91056641 0.09533203 -18.8828125 -0.65625 C-12.52751412 -4.66256746 -6.31889799 -3.0464193 0 0 Z " fill="#474E41" transform="translate(57.98046875,12.85546875)"/>
<path d="M0 0 C1.0209375 0.36351562 1.0209375 0.36351562 2.0625 0.734375 C6.74263437 2.35250657 11.39283609 3.89485264 16.21875 5.015625 C16.92902344 5.18094727 17.63929687 5.34626953 18.37109375 5.51660156 C19.76667551 5.83348825 21.16513915 6.13799437 22.56640625 6.42871094 C26.80843648 7.39223371 29.33092205 8.51385737 32 12 C32 12.66 32 13.32 32 14 C32.66 14 33.32 14 34 14 C35.99531168 16.99296753 36.45643234 18.60434925 37.0625 22.0625 C37.6778309 25.64787052 37.6778309 25.64787052 39 29 C39 32.63 39 36.26 39 40 C15.24 40 -8.52 40 -33 40 C-35.25 27.625 -35.25 27.625 -35 22 C-34.67 22 -34.34 22 -34 22 C-34.33 21.01 -34.66 20.02 -35 19 C-35.34820041 17.33637583 -35.68404492 15.67004829 -36 14 C-35.01 14.495 -35.01 14.495 -34 15 C-34 15.66 -34 16.32 -34 17 C-32.68 16.01 -31.36 15.02 -30 14 C-30 14.66 -30 15.32 -30 16 C-29.32453125 15.89300781 -28.6490625 15.78601563 -27.953125 15.67578125 C-27.06109375 15.55589844 -26.1690625 15.43601562 -25.25 15.3125 C-23.92742188 15.12107422 -23.92742188 15.12107422 -22.578125 14.92578125 C-19.38543619 15.01769199 -18.42170809 16.0079498 -16 18 C-13.88735364 18.76681725 -13.88735364 18.76681725 -11.75 19.1875 C-10.5125 19.455625 -9.275 19.72375 -8 20 C-7.72285156 19.278125 -7.44570313 18.55625 -7.16015625 17.8125 C-5.69272751 14.25509699 -3.91284368 10.90272984 -2.12109375 7.5 C-0.99428239 4.98724994 -0.43090651 2.71132183 0 0 Z " fill="#3E483D" transform="translate(57,56)"/>
<path d="M0 0 C3.49573601 1.9676193 5.50018607 3.72706754 6.89453125 7.51171875 C7.04952324 10.76655051 6.20899221 13.1280822 5.01953125 16.13671875 C3.31112844 14.50259432 2.08500078 13.26765781 1.01953125 11.13671875 C-4.58508406 11.55761871 -9.70133422 12.05284986 -14.98046875 14.13671875 C-13.00046875 14.46671875 -11.02046875 14.79671875 -8.98046875 15.13671875 C-9.64046875 17.44671875 -10.30046875 19.75671875 -10.98046875 22.13671875 C-9.33046875 22.46671875 -7.68046875 22.79671875 -5.98046875 23.13671875 C-5.98046875 23.79671875 -5.98046875 24.45671875 -5.98046875 25.13671875 C-8.29046875 25.46671875 -10.60046875 25.79671875 -12.98046875 26.13671875 C-12.98046875 26.79671875 -12.98046875 27.45671875 -12.98046875 28.13671875 C-12.32046875 28.46671875 -11.66046875 28.79671875 -10.98046875 29.13671875 C-11.97046875 29.63171875 -11.97046875 29.63171875 -12.98046875 30.13671875 C-11.33046875 30.46671875 -9.68046875 30.79671875 -7.98046875 31.13671875 C-7.98046875 31.79671875 -7.98046875 32.45671875 -7.98046875 33.13671875 C-9.63046875 33.79671875 -11.28046875 34.45671875 -12.98046875 35.13671875 C-12.65046875 36.12671875 -12.32046875 37.11671875 -11.98046875 38.13671875 C-9.34046875 38.13671875 -6.70046875 38.13671875 -3.98046875 38.13671875 C-4.31046875 39.12671875 -4.64046875 40.11671875 -4.98046875 41.13671875 C-5.78484375 41.34296875 -6.58921875 41.54921875 -7.41796875 41.76171875 C-8.26359375 42.21546875 -9.10921875 42.66921875 -9.98046875 43.13671875 C-10.63558242 45.23609222 -10.63558242 45.23609222 -10.98046875 47.63671875 C-11.3984375 50.06640625 -11.3984375 50.06640625 -11.98046875 52.13671875 C-14.29296875 53.76171875 -14.29296875 53.76171875 -16.98046875 54.13671875 C-18.63046875 53.80671875 -20.28046875 53.47671875 -21.98046875 53.13671875 C-22.97046875 49.83671875 -23.96046875 46.53671875 -24.98046875 43.13671875 C-24.48546875 42.64171875 -24.48546875 42.64171875 -23.98046875 42.13671875 C-23.67286826 36.51950001 -23.67286826 36.51950001 -24.98046875 31.13671875 C-25.97046875 30.80671875 -26.96046875 30.47671875 -27.98046875 30.13671875 C-28.96403563 25.97055335 -29.21114871 21.9753926 -29.29296875 17.69921875 C-29.33035156 16.42175781 -29.36773438 15.14429687 -29.40625 13.828125 C-28.81110334 8.66836722 -26.73173861 5.74008866 -22.9453125 2.2734375 C-22.27628906 1.79519531 -21.60726562 1.31695312 -20.91796875 0.82421875 C-20.24636719 0.33308594 -19.57476562 -0.15804688 -18.8828125 -0.6640625 C-12.53134724 -4.6679636 -6.31050363 -3.06387314 0 0 Z " fill="#9C6744" transform="translate(57.98046875,12.86328125)"/>
<path d="M0 0 C0.33 0 0.66 0 1 0 C1.10957031 0.69867188 1.21914063 1.39734375 1.33203125 2.1171875 C1.49058594 3.02726562 1.64914063 3.93734375 1.8125 4.875 C1.96332031 5.77992187 2.11414062 6.68484375 2.26953125 7.6171875 C2.83051301 10.34412478 2.83051301 10.34412478 6 12 C5.67 12.99 5.34 13.98 5 15 C2.525 14.505 2.525 14.505 0 14 C-0.66 18.62 -1.32 23.24 -2 28 C-1.34 28.33 -0.68 28.66 0 29 C0.38063221 31.3260857 0.71269945 33.66055264 1 36 C1.33 36.66 1.66 37.32 2 38 C-9.55 38 -21.1 38 -33 38 C-35.25 25.625 -35.25 25.625 -35 20 C-34.67 20 -34.34 20 -34 20 C-34.33 19.01 -34.66 18.02 -35 17 C-35.34820041 15.33637583 -35.68404492 13.67004829 -36 12 C-35.01 12.495 -35.01 12.495 -34 13 C-34 13.66 -34 14.32 -34 15 C-32.68 14.01 -31.36 13.02 -30 12 C-30 12.66 -30 13.32 -30 14 C-29.32453125 13.89300781 -28.6490625 13.78601563 -27.953125 13.67578125 C-27.06109375 13.55589844 -26.1690625 13.43601562 -25.25 13.3125 C-23.92742188 13.12107422 -23.92742188 13.12107422 -22.578125 12.92578125 C-19.38543619 13.01769199 -18.42170809 14.0079498 -16 16 C-13.88735364 16.76681725 -13.88735364 16.76681725 -11.75 17.1875 C-10.5125 17.455625 -9.275 17.72375 -8 18 C-7.73445313 17.31550781 -7.46890625 16.63101563 -7.1953125 15.92578125 C-5.84950899 12.63164129 -4.37442403 9.41452129 -2.875 6.1875 C-2.33617187 5.02605469 -1.79734375 3.86460938 -1.2421875 2.66796875 C-0.83226562 1.78753906 -0.42234375 0.90710937 0 0 Z " fill="#40493E" transform="translate(57,58)"/>
<path d="M0 0 C1.6875 2.0625 1.6875 2.0625 3 4 C3.33 2.35 3.66 0.7 4 -1 C4.33 -1 4.66 -1 5 -1 C4.03630035 17.28493287 4.03630035 17.28493287 -0.0625 22.75 C-2.46196343 26.7749064 -2.46359777 29.8581615 -2.73046875 34.45703125 C-3.06659324 37.62829271 -4.14578148 39.43262052 -6 42 C-7.00484883 44.33124929 -8.00522247 46.66443537 -9 49 C-9.66 49.99 -10.32 50.98 -11 52 C-14.33135891 51.40300869 -16.21275667 50.27987719 -18.75 48.0625 C-19.36359375 47.53785156 -19.9771875 47.01320312 -20.609375 46.47265625 C-22 45 -22 45 -22 43 C-19.69 42.34 -17.38 41.68 -15 41 C-14.92523438 40.38511719 -14.85046875 39.77023438 -14.7734375 39.13671875 C-14.3650992 36.62663922 -13.90967931 34.3778594 -13 32 C-9.9375 30.0625 -9.9375 30.0625 -7 29 C-6.67 28.34 -6.34 27.68 -6 27 C-8.64 27 -11.28 27 -14 27 C-14 26.34 -14 25.68 -14 25 C-14.66 24.67 -15.32 24.34 -16 24 C-15.34 23.34 -14.68 22.68 -14 22 C-12.68 22 -11.36 22 -10 22 C-10 21.34 -10 20.68 -10 20 C-11.65 20 -13.3 20 -15 20 C-15 18.33333333 -15 16.66666667 -15 15 C-13.68 15 -12.36 15 -11 15 C-10.67 14.34 -10.34 13.68 -10 13 C-9.34 13.33 -8.68 13.66 -8 14 C-8 13.34 -8 12.68 -8 12 C-10.31 12 -12.62 12 -15 12 C-14.34 11.34 -13.68 10.68 -13 10 C-12.35232207 7.42938689 -12.35232207 7.42938689 -12 5 C-13.98 4.34 -15.96 3.68 -18 3 C-18 2.67 -18 2.34 -18 2 C-5.61290323 -1.87096774 -5.61290323 -1.87096774 0 0 Z " fill="#A67960" transform="translate(60,24)"/>
<path d="M0 0 C3.49573601 1.9676193 5.50018607 3.72706754 6.89453125 7.51171875 C7.04952324 10.76655051 6.20899221 13.1280822 5.01953125 16.13671875 C3.31112844 14.50259432 2.08500078 13.26765781 1.01953125 11.13671875 C-0.60589955 11.27766939 -2.23080926 11.42463962 -3.85546875 11.57421875 C-4.76039062 11.65542969 -5.6653125 11.73664062 -6.59765625 11.8203125 C-8.99157736 12.0066116 -8.99157736 12.0066116 -10.98046875 13.13671875 C-13.80090601 13.41092793 -16.62099922 13.58290945 -19.44921875 13.7578125 C-22.14504455 13.90487203 -22.14504455 13.90487203 -23.98046875 16.13671875 C-24.69455209 18.12028358 -25.36664617 20.11987312 -25.98046875 22.13671875 C-26.64046875 21.80671875 -27.30046875 21.47671875 -27.98046875 21.13671875 C-29.19700293 16.10780633 -29.61709096 11.60371775 -27.54296875 6.82421875 C-19.23081577 -1.89340511 -11.46139503 -5.56473183 0 0 Z " fill="#2F251F" transform="translate(57.98046875,12.86328125)"/>
<path d="M0 0 C6.68780594 0.43978769 12.55474849 1.22157136 17.9375 5.5625 C19 7 19 7 19 9 C19.66 9 20.32 9 21 9 C22.99531168 11.99296753 23.45643234 13.60434925 24.0625 17.0625 C24.6778309 20.64787052 24.6778309 20.64787052 26 24 C26.07033769 25.87379605 26.0843022 27.75001102 26.0625 29.625 C26.05347656 30.62789062 26.04445313 31.63078125 26.03515625 32.6640625 C26.02355469 33.43492188 26.01195313 34.20578125 26 35 C22.7 35 19.4 35 16 35 C16.33 32.69 16.66 30.38 17 28 C16.01 29.32 15.02 30.64 14 32 C13.34 31.67 12.68 31.34 12 31 C12 30.34 12 29.68 12 29 C11.34 28.67 10.68 28.34 10 28 C10 28.66 10 29.32 10 30 C9.34 30 8.68 30 8 30 C9.68673918 25.50202887 11.81673892 21.27113698 14 17 C13.01 17 12.02 17 11 17 C11.20625 16.0925 11.4125 15.185 11.625 14.25 C12.01499654 10.87003003 11.83976846 9.75965269 10 7 C9.67 6.67 9.34 6.34 9 6 C6.24331998 9.95523655 5.4682121 13.22423661 5 18 C4.34 18 3.68 18 3 18 C2.86722656 17.03578125 2.73445313 16.0715625 2.59765625 15.078125 C2.33275391 13.18320313 2.33275391 13.18320313 2.0625 11.25 C1.88847656 9.99703125 1.71445313 8.7440625 1.53515625 7.453125 C1.13950662 4.90017407 0.69553578 2.4813709 0 0 Z " fill="#434D3F" transform="translate(70,61)"/>
<path d="M0 0 C0.66 0 1.32 0 2 0 C2.15855469 0.58007812 2.31710938 1.16015625 2.48046875 1.7578125 C4.57814184 8.78096109 7.67353585 12.95387607 13 18 C7.45536749 17.24391375 7.45536749 17.24391375 5.08203125 15.97265625 C2.68792626 14.85420945 1.06498864 14.76359581 -1.5625 14.8125 C-2.32691406 14.81894531 -3.09132813 14.82539062 -3.87890625 14.83203125 C-6.18897716 14.92946495 -6.18897716 14.92946495 -9 16 C-9 16.66 -9 17.32 -9 18 C-9 18.66 -9 19.32 -9 20 C-9.66 20 -10.32 20 -11 20 C-11.33 21.32 -11.66 22.64 -12 24 C-12.61488281 23.13375 -12.61488281 23.13375 -13.2421875 22.25 C-13.78101563 21.5075 -14.31984375 20.765 -14.875 20 C-15.67550781 18.88625 -15.67550781 18.88625 -16.4921875 17.75 C-16.98976563 17.1725 -17.48734375 16.595 -18 16 C-18.66 16 -19.32 16 -20 16 C-19.50628906 16.58007812 -19.01257812 17.16015625 -18.50390625 17.7578125 C-12.14059754 25.51669596 -12.14059754 25.51669596 -12 31 C-13.89291149 29.28736579 -15.11041179 27.80427001 -16.375 25.5625 C-18.21005459 22.66876007 -20.2486119 21.00776969 -23 19 C-22.67 20.32 -22.34 21.64 -22 23 C-23.98 23 -25.96 23 -28 23 C-27.54100427 18.06579595 -26.42064636 15.57791745 -23 12 C-19.79296875 10.3046875 -19.79296875 10.3046875 -16.1875 8.875 C-15.00542969 8.39804688 -13.82335937 7.92109375 -12.60546875 7.4296875 C-10.76046547 6.69808273 -8.9149567 5.96749037 -7.06103516 5.25878906 C-3.56458216 3.86600359 -2.14551483 3.21827224 0 0 Z " fill="#54594C" transform="translate(32,57)"/>
<path d="M0 0 C2.8537989 0.14035077 5.2694323 0.26609248 8 1 C12.68480599 6.28929709 12.11495178 13.33279648 12 20 C12.66 20 13.32 20 14 20 C13.938125 18.948125 13.87625 17.89625 13.8125 16.8125 C14.05596092 11.86212787 15.55589048 9.44410952 19 6 C19.4640625 7.423125 19.4640625 7.423125 19.9375 8.875 C20.87394742 11.86080408 20.87394742 11.86080408 22 14 C21.72057545 15.67654729 21.39171753 17.34608154 21 19 C22.32 17.68 23.64 16.36 25 15 C24.42294958 19.01771353 23.15478031 21.76367841 21 25.1875 C18.89110597 28.53293588 18.89110597 28.53293588 17 32 C17.66 32 18.32 32 19 32 C19 31.34 19 30.68 19 30 C22 31 22 31 23 33 C24.32 31.68 25.64 30.36 27 29 C26.33333333 31.66666667 25.66666667 34.33333333 25 37 C20.71 37 16.42 37 12 37 C12.495 32.545 12.495 32.545 13 28 C12.01 28.33 11.02 28.66 10 29 C9.97421875 27.7934375 9.9484375 26.586875 9.921875 25.34375 C9.86555114 23.72913262 9.8082048 22.11455067 9.75 20.5 C9.73582031 19.70851563 9.72164062 18.91703125 9.70703125 18.1015625 C9.47424197 12.42150418 8.35405109 7.69098055 5 3 C2.42240798 1.42930551 2.42240798 1.42930551 0 1 C0 0.67 0 0.34 0 0 Z " fill="#2D342B" transform="translate(61,59)"/>
<path d="M0 0 C1.125 1.5 1.125 1.5 2 4 C0.80407886 11.70704738 -2.69784186 18.54676279 -7 25 C-10.33135891 24.40300869 -12.21275667 23.27987719 -14.75 21.0625 C-15.36359375 20.53785156 -15.9771875 20.01320313 -16.609375 19.47265625 C-18 18 -18 18 -18 16 C-15.69 15.34 -13.38 14.68 -11 14 C-10.90203125 13.37351562 -10.8040625 12.74703125 -10.703125 12.1015625 C-10.55359375 11.28429688 -10.4040625 10.46703125 -10.25 9.625 C-10.11078125 8.81289063 -9.9715625 8.00078125 -9.828125 7.1640625 C-9 5 -9 5 -7.171875 3.7109375 C-5 3 -5 3 -1 3 C-0.67 2.01 -0.34 1.02 0 0 Z " fill="#B9855B" transform="translate(56,51)"/>
<path d="M0 0 C-0.80524663 3.29419074 -1.43020861 5.46696935 -3.9375 7.8125 C-7.82468646 9.31977638 -11.42967162 9.50633175 -15.57421875 9.69140625 C-18.17945068 9.77130484 -18.17945068 9.77130484 -20 12 C-20.71408334 13.98356483 -21.38617742 15.98315437 -22 18 C-22.66 17.67 -23.32 17.34 -24 17 C-24 13.7 -24 10.4 -24 7 C-22.35 6.67 -20.7 6.34 -19 6 C-18.67 4.35 -18.34 2.7 -18 1 C-11.76103963 -1.50407253 -6.42312277 -3.21156138 0 0 Z " fill="#29221E" transform="translate(54,17)"/>
<path d="M0 0 C2.64 0.66 5.28 1.32 8 2 C8.75 4.625 8.75 4.625 9 8 C7.25 11.125 7.25 11.125 5 14 C4.4225 14.78375 3.845 15.5675 3.25 16.375 C2.8375 16.91125 2.425 17.4475 2 18 C1.34 17.67 0.68 17.34 0 17 C0.33 16.34 0.66 15.68 1 15 C-1.64 15 -4.28 15 -7 15 C-7 14.34 -7 13.68 -7 13 C-7.66 12.67 -8.32 12.34 -9 12 C-8.34 11.34 -7.68 10.68 -7 10 C-5.68 10 -4.36 10 -3 10 C-3 9.34 -3 8.68 -3 8 C-4.65 8 -6.3 8 -8 8 C-8 6.33333333 -8 4.66666667 -8 3 C-6.68 3 -5.36 3 -4 3 C-3.67 2.34 -3.34 1.68 -3 1 C-1.68 1.66 -0.36 2.32 1 3 C0.67 2.01 0.34 1.02 0 0 Z " fill="#A67558" transform="translate(53,36)"/>
<path d="M0 0 C1.69579572 0.4771571 3.37685185 1.00606134 5.0546875 1.54296875 C4.3946875 3.85296875 3.7346875 6.16296875 3.0546875 8.54296875 C4.7046875 8.87296875 6.3546875 9.20296875 8.0546875 9.54296875 C8.0546875 10.20296875 8.0546875 10.86296875 8.0546875 11.54296875 C5.7446875 11.87296875 3.4346875 12.20296875 1.0546875 12.54296875 C1.0546875 13.20296875 1.0546875 13.86296875 1.0546875 14.54296875 C1.7146875 14.87296875 2.3746875 15.20296875 3.0546875 15.54296875 C-0.9053125 16.03796875 -0.9053125 16.03796875 -4.9453125 16.54296875 C-3.82079523 13.57103025 -2.72237459 11.20856188 -0.9453125 8.54296875 C-3.9153125 8.54296875 -6.8853125 8.54296875 -9.9453125 8.54296875 C-11.2713399 3.11831122 -11.2713399 3.11831122 -9.8828125 0.66796875 C-6.61683176 -1.22840716 -3.60167784 -0.84617732 0 0 Z " fill="#8A5D43" transform="translate(43.9453125,26.45703125)"/>
<path d="M0 0 C0.99 0.495 0.99 0.495 2 1 C2 1.66 2 2.32 2 3 C3.32 2.01 4.64 1.02 6 0 C6 0.66 6 1.32 6 2 C6.67546875 1.89300781 7.3509375 1.78601563 8.046875 1.67578125 C8.93890625 1.55589844 9.8309375 1.43601562 10.75 1.3125 C11.63171875 1.18488281 12.5134375 1.05726562 13.421875 0.92578125 C16.6099091 1.01755799 17.59759603 1.99143275 20 4 C22.31347872 4.73260159 24.645752 5.411438 27 6 C26.34 8.97 25.68 11.94 25 15 C24.67 15 24.34 15 24 15 C23.7525 13.3603125 23.7525 13.3603125 23.5 11.6875 C22.43433666 8.01762312 22.43433666 8.01762312 20.19140625 6.90234375 C18.14223024 6.15411251 16.11188097 5.54365253 14 5 C13.01 4.67 12.02 4.34 11 4 C8.6593935 4.27769908 6.32375692 4.60539977 4 5 C4.28875 6.01320313 4.5775 7.02640625 4.875 8.0703125 C5.25040295 9.42176313 5.62538041 10.77333201 6 12.125 C6.19078125 12.79015625 6.3815625 13.4553125 6.578125 14.140625 C7.69208455 18.1986205 8.20950232 21.79685974 8 26 C6.35 26 4.7 26 3 26 C1.77100654 19.93184478 0.72439786 14.20104812 1 8 C1.33 8 1.66 8 2 8 C1.67 7.01 1.34 6.02 1 5 C0.65179959 3.33637583 0.31595508 1.67004829 0 0 Z " fill="#252B23" transform="translate(21,70)"/>
<path d="M0 0 C0.66 0 1.32 0 2 0 C2.15855469 0.58007812 2.31710938 1.16015625 2.48046875 1.7578125 C4.57814184 8.78096109 7.67353585 12.95387607 13 18 C7.44128114 17.24199288 7.44128114 17.24199288 5.0625 15.9375 C2.04702414 14.56682916 -0.73661871 14.87448534 -4 15 C-4.33 12.69 -4.66 10.38 -5 8 C-6.051875 8.33 -7.10375 8.66 -8.1875 9 C-11.38873357 9.83966782 -13.7411008 10.19750904 -17 10 C-13.13681254 7.4245417 -9.03346764 5.98627415 -4.71484375 4.31640625 C-1.73822554 3.15621907 -1.73822554 3.15621907 0 0 Z " fill="#56574B" transform="translate(32,57)"/>
<path d="M0 0 C6.68780594 0.43978769 12.55474849 1.22157136 17.9375 5.5625 C19 7 19 7 19 9 C19.66 9 20.32 9 21 9 C21.33 9.99 21.66 10.98 22 12 C20.35 12.33 18.7 12.66 17 13 C16 11 15 9 14 7 C13.34 8.32 12.68 9.64 12 11 C11.690625 10.360625 11.38125 9.72125 11.0625 9.0625 C10.1654837 7.06389179 10.1654837 7.06389179 9 6 C6.24331998 9.95523655 5.4682121 13.22423661 5 18 C4.34 18 3.68 18 3 18 C2.86722656 17.03578125 2.73445313 16.0715625 2.59765625 15.078125 C2.33275391 13.18320313 2.33275391 13.18320313 2.0625 11.25 C1.88847656 9.99703125 1.71445313 8.7440625 1.53515625 7.453125 C1.13950662 4.90017407 0.69553578 2.4813709 0 0 Z " fill="#434B3E" transform="translate(70,61)"/>
<path d="M0 0 C2.65696068 0.15182632 4.44234524 0.47324024 6.41015625 2.33203125 C8.17484138 4.4465665 9.76580294 6.53160588 11 9 C11.33 8.01 11.66 7.02 12 6 C12.99 6 13.98 6 15 6 C15.33 9.3 15.66 12.6 16 16 C15.34 15.34 14.68 14.68 14 14 C14.33 17.63 14.66 21.26 15 25 C11.24751775 23.74917258 10.9484738 22.63174613 9.0625 19.25 C6.93775758 15.56186686 4.77758886 12.24052034 2 9 C0.66666667 7.33333333 -0.66666667 5.66666667 -2 4 C2.45165631 5.39909198 4.96606091 7.47407079 8 11 C9.3125 13.8125 9.3125 13.8125 10 16 C8.43920557 8.90547984 5.28456552 5.00643049 0 0 Z " fill="#3D463B" transform="translate(9,71)"/>
<path d="M0 0 C0.99 0.33 1.98 0.66 3 1 C3 1.66 3 2.32 3 3 C3.99 3.33 4.98 3.66 6 4 C6 4.66 6 5.32 6 6 C7.96147874 7.38938077 9.96166576 8.7260411 12 10 C8.25 12 8.25 12 6 12 C6 12.66 6 13.32 6 14 C3.36 14 0.72 14 -2 14 C-2.05437607 12.41705218 -2.09296271 10.83355744 -2.125 9.25 C-2.14820313 8.36828125 -2.17140625 7.4865625 -2.1953125 6.578125 C-1.99139502 3.8864142 -1.36551721 2.30095026 0 0 Z " fill="#434639" transform="translate(5,82)"/>
<path d="M0 0 C0.763125 0.20625 1.52625 0.4125 2.3125 0.625 C1.9825 1.615 1.6525 2.605 1.3125 3.625 C-0.3375 3.295 -1.9875 2.965 -3.6875 2.625 C-4.3475 7.245 -5.0075 11.865 -5.6875 16.625 C-5.0275 16.955 -4.3675 17.285 -3.6875 17.625 C-3.30686779 19.9510857 -2.97480055 22.28555264 -2.6875 24.625 C-2.3575 25.285 -2.0275 25.945 -1.6875 26.625 C-4.9875 26.625 -8.2875 26.625 -11.6875 26.625 C-11.3575 25.635 -11.0275 24.645 -10.6875 23.625 C-11.3475 23.295 -12.0075 22.965 -12.6875 22.625 C-12.0275 22.625 -11.3675 22.625 -10.6875 22.625 C-10.04019196 20.06286446 -9.39460712 17.50031515 -8.75 14.9375 C-8.56759766 14.21626953 -8.38519531 13.49503906 -8.19726562 12.75195312 C-8.02001953 12.04619141 -7.84277344 11.34042969 -7.66015625 10.61328125 C-7.48629395 9.92572754 -7.31243164 9.23817383 -7.13330078 8.52978516 C-6.76256066 6.94571374 -6.49135171 5.33875324 -6.24609375 3.73046875 C-5.3052946 0.18437965 -3.46371192 -0.48330864 0 0 Z " fill="#2C332A" transform="translate(60.6875,69.375)"/>
<path d="M0 0 C0.33 0 0.66 0 1 0 C1.66 3.63 2.32 7.26 3 11 C1.35 11.66 -0.3 12.32 -2 13 C-2.03738281 13.70125 -2.07476562 14.4025 -2.11328125 15.125 C-2.54272869 21.32251602 -3.52645761 26.30009796 -6 32 C-6.33 32 -6.66 32 -7 32 C-7.46827115 22.36141884 -7.16978712 14.87761129 -3 6 C-2.69191406 5.33742188 -2.38382813 4.67484375 -2.06640625 3.9921875 C-1.41137459 2.64451471 -0.71252835 1.31817745 0 0 Z " fill="#373E37" transform="translate(57,58)"/>
<path d="M0 0 C1.6875 2.0625 1.6875 2.0625 3 4 C3.33 2.35 3.66 0.7 4 -1 C4.33 -1 4.66 -1 5 -1 C5.125 5.625 5.125 5.625 4 9 C3.34 9 2.68 9 2 9 C2 8.01 2 7.02 2 6 C1.34 6 0.68 6 0 6 C0 6.99 0 7.98 0 9 C-2.31 9.33 -4.62 9.66 -7 10 C-7.33 9.01 -7.66 8.02 -8 7 C-8.66 7 -9.32 7 -10 7 C-9.34 5.68 -8.68 4.36 -8 3 C-6.68 3 -5.36 3 -4 3 C-4 2.34 -4 1.68 -4 1 C-8.455 1.495 -8.455 1.495 -13 2 C-9.50504013 -1.49495987 -4.46845925 -1.48948642 0 0 Z " fill="#88634D" transform="translate(60,24)"/>
<path d="M0 0 C0.33 0 0.66 0 1 0 C1.33 1.65 1.66 3.3 2 5 C2.66 4.67 3.32 4.34 4 4 C3.01 7.3 2.02 10.6 1 14 C1.66 13.67 2.32 13.34 3 13 C3.33 12.01 3.66 11.02 4 10 C7 11 7 11 8 13 C9.32 11.68 10.64 10.36 12 9 C11.33333333 11.66666667 10.66666667 14.33333333 10 17 C5.71 17 1.42 17 -3 17 C-2.855625 16.030625 -2.71125 15.06125 -2.5625 14.0625 C-2.01988094 10.32530676 -1.63804129 6.5793636 -1.28125 2.8203125 C-1 1 -1 1 0 0 Z " fill="#0D100C" transform="translate(76,79)"/>
<path d="M0 0 C0.33 0 0.66 0 1 0 C1.33 1.98 1.66 3.96 2 6 C2.99 5.67 3.98 5.34 5 5 C5 5.66 5 6.32 5 7 C7.97 7 10.94 7 14 7 C13.34 8.32 12.68 9.64 12 11 C10.35 11 8.7 11 7 11 C6.67 13.97 6.34 16.94 6 20 C5.34 19.67 4.68 19.34 4 19 C4 18.01 4 17.02 4 16 C3.01 15.67 2.02 15.34 1 15 C-0.32286246 10.03926578 -0.08893197 5.08888488 0 0 Z " fill="#9B6C52" transform="translate(29,28)"/>
<path d="M0 0 C0 0.33 0 0.66 0 1 C-2.64 1.66 -5.28 2.32 -8 3 C-7.67 3.33 -7.34 3.66 -7 4 C-6.67 4.66 -6.34 5.32 -6 6 C-9.37097383 7.49821059 -11.20442119 8 -15 8 C-14.95875 8.78375 -14.9175 9.5675 -14.875 10.375 C-15 13 -15 13 -17 15 C-17.99 15 -18.98 15 -20 15 C-20.66 15.99 -21.32 16.98 -22 18 C-21.77733538 12.54471675 -20.56052765 9.56758201 -16.8046875 5.578125 C-11.63652639 1.05878065 -6.78571522 -0.56547627 0 0 Z " fill="#4A423C" transform="translate(51,10)"/>
<path d="M0 0 C2.31 0.66 4.62 1.32 7 2 C5.375 7.75 5.375 7.75 2 10 C-0.69921875 10.1953125 -0.69921875 10.1953125 -3.6875 10.125 C-5.17830078 10.09792969 -5.17830078 10.09792969 -6.69921875 10.0703125 C-7.45847656 10.04710937 -8.21773437 10.02390625 -9 10 C-8.67 9.34 -8.34 8.68 -8 8 C-8.66 8 -9.32 8 -10 8 C-10 7.01 -10 6.02 -10 5 C-7.36 4.01 -4.72 3.02 -2 2 C-2 2.66 -2 3.32 -2 4 C-2.66 4 -3.32 4 -4 4 C-4 4.66 -4 5.32 -4 6 C-1.58354218 6.16687448 -1.58354218 6.16687448 1 6 C1.66 5.34 2.32 4.68 3 4 C2.01 3.34 1.02 2.68 0 2 C0 1.34 0 0.68 0 0 Z " fill="#191613" transform="translate(47,15)"/>
<path d="M0 0 C2.3125 0.5625 2.3125 0.5625 5 2 C7.54127956 6.6287592 8.46061042 10.71398208 9 16 C5.56159963 14.52639984 3.21116214 13.04987881 1 10 C0.36741101 6.67498681 0.12897121 3.37904573 0 0 Z " fill="#606353" transform="translate(57,56)"/>
<path d="M0 0 C8.57142857 -0.28571429 8.57142857 -0.28571429 12 2 C11.125 6.875 11.125 6.875 10 8 C4.26388889 8.27314815 4.26388889 8.27314815 2 8 C1.34 7.34 0.68 6.68 0 6 C0.66 5.34 1.32 4.68 2 4 C3.32 4 4.64 4 6 4 C6 3.34 6 2.68 6 2 C4.35 2 2.7 2 1 2 C0.67 1.34 0.34 0.68 0 0 Z " fill="#B58269" transform="translate(44,42)"/>
<path d="M0 0 C0.9590625 0.495 0.9590625 0.495 1.9375 1 C0.9475 2.65 -0.0425 4.3 -1.0625 6 C-3.02153745 5.52372025 -4.97971097 5.04388577 -6.9375 4.5625 C-8.02804688 4.29566406 -9.11859375 4.02882813 -10.2421875 3.75390625 C-13.0625 3 -13.0625 3 -15.0625 2 C-12.51741064 -3.09017872 -4.54783034 -1.48500583 0 0 Z " fill="#39322E" transform="translate(57.0625,12)"/>
<path d="M0 0 C4.95 0.33 9.9 0.66 15 1 C14 4 14 4 12.109375 5.0546875 C5.75795311 7.26296332 5.75795311 7.26296332 1.9375 5.9375 C1.298125 5.298125 0.65875 4.65875 0 4 C0 2.68 0 1.36 0 0 Z " fill="#6A3F2A" transform="translate(39,50)"/>
<path d="M0 0 C3.61177103 0.24078474 5.54126348 0.62576757 8.375 2.9375 C10 5 10 5 10 7 C10.66 7 11.32 7 12 7 C12.33 7.99 12.66 8.98 13 10 C11.35 10.33 9.7 10.66 8 11 C7 9 6 7 5 5 C4.34 6.32 3.68 7.64 3 9 C1.66666667 6.33333333 0.33333333 3.66666667 -1 1 C-0.67 0.67 -0.34 0.34 0 0 Z " fill="#4E5848" transform="translate(79,63)"/>
<path d="M0 0 C0.33 0 0.66 0 1 0 C1 1.65 1 3.3 1 5 C0.01 5 -0.98 5 -2 5 C-1.505 5.928125 -1.01 6.85625 -0.5 7.8125 C1 11 1 11 1 14 C-0.32 14 -1.64 14 -3 14 C-3.33 11.69 -3.66 9.38 -4 7 C-5.051875 7.33 -6.10375 7.66 -7.1875 8 C-10.38873357 8.83966782 -12.7411008 9.19750904 -16 9 C-12.10630491 6.40420327 -7.96039691 4.92687073 -3.6171875 3.21875 C-0.87734432 2.27305107 -0.87734432 2.27305107 0 0 Z " fill="#6B6C5C" transform="translate(31,58)"/>
<path d="M0 0 C1.22625047 2.45250093 1.03425355 3.84310435 0.87890625 6.5703125 C0.83056641 7.46621094 0.78222656 8.36210938 0.73242188 9.28515625 C0.67634766 10.22230469 0.62027344 11.15945312 0.5625 12.125 C0.51029297 13.06988281 0.45808594 14.01476562 0.40429688 14.98828125 C0.27443239 17.3258419 0.1394613 19.66299545 0 22 C-0.99 22.33 -1.98 22.66 -3 23 C-3.08120751 20.10359882 -3.14059421 17.20949088 -3.1875 14.3125 C-3.21263672 13.49587891 -3.23777344 12.67925781 -3.26367188 11.83789062 C-3.32217012 7.02153514 -3.07302376 3.96024846 0 0 Z " fill="#515548" transform="translate(50,73)"/>
<path d="M0 0 C2.97805166 1.07485971 5.98682048 2.0251478 9 3 C8.34 5.97 7.68 8.94 7 12 C6.67 12 6.34 12 6 12 C5.7525 10.3603125 5.7525 10.3603125 5.5 8.6875 C4.43433666 5.01762312 4.43433666 5.01762312 2.19140625 3.90234375 C0.14223024 3.15411251 -1.88811903 2.54365253 -4 2 C-4.99 1.67 -5.98 1.34 -7 1 C-8.66362417 0.65179959 -10.32995171 0.31595508 -12 0 C-12 -0.33 -12 -0.66 -12 -1 C-4.16370107 -2.30604982 -4.16370107 -2.30604982 0 0 Z " fill="#23251E" transform="translate(39,73)"/>
<path d="M0 0 C0.66 0.33 1.32 0.66 2 1 C1.67 2.65 1.34 4.3 1 6 C-2.3 6 -5.6 6 -9 6 C-9 4.35 -9 2.7 -9 1 C-6.01405576 -0.49297212 -3.29146376 -0.11755228 0 0 Z " fill="#6B4330" transform="translate(45,28)"/>
<path d="M0 0 C1.65 0 3.3 0 5 0 C4.34 1.32 3.68 2.64 3 4 C6.63 4.33 10.26 4.66 14 5 C14 5.66 14 6.32 14 7 C12.35 7.66 10.7 8.32 9 9 C9.33 9.66 9.66 10.32 10 11 C7.6875 10.8125 7.6875 10.8125 5 10 C2.39811744 6.68035674 2 5.30683959 2 1 C1.34 0.67 0.68 0.34 0 0 Z " fill="#9D6549" transform="translate(36,39)"/>
<path d="M0 0 C5.95703125 0.29296875 5.95703125 0.29296875 8 1 C10.63100042 4.59527484 11.36708097 7.09750213 11.29296875 11.51953125 C11.28330078 12.54111328 11.27363281 13.56269531 11.26367188 14.61523438 C11.23853516 15.67033203 11.21339844 16.72542969 11.1875 17.8125 C11.17396484 18.88693359 11.16042969 19.96136719 11.14648438 21.06835938 C11.11122577 23.71275455 11.06194366 26.35611748 11 29 C10.67 29 10.34 29 10 29 C9.97421875 27.7934375 9.9484375 26.586875 9.921875 25.34375 C9.86555114 23.72913262 9.8082048 22.11455067 9.75 20.5 C9.73582031 19.70851563 9.72164062 18.91703125 9.70703125 18.1015625 C9.47424197 12.42150418 8.35405109 7.69098055 5 3 C2.42240798 1.42930551 2.42240798 1.42930551 0 1 C0 0.67 0 0.34 0 0 Z " fill="#1C1F19" transform="translate(61,59)"/>
<path d="M0 0 C0 0.66 0 1.32 0 2 C-1.2065625 2.433125 -1.2065625 2.433125 -2.4375 2.875 C-5.1326468 3.73262568 -5.1326468 3.73262568 -6 6 C-5.34 6 -4.68 6 -4 6 C-3.67 6.99 -3.34 7.98 -3 9 C-3.99 9.495 -3.99 9.495 -5 10 C-5.66 9.67 -6.32 9.34 -7 9 C-7 9.66 -7 10.32 -7 11 C-8.32 10.67 -9.64 10.34 -11 10 C-10.34 9.67 -9.68 9.34 -9 9 C-8.34444881 6.47266765 -8.34444881 6.47266765 -8 4 C-9.98 3.34 -11.96 2.68 -14 2 C-14 1.67 -14 1.34 -14 1 C-12.41693353 0.83081732 -10.83353281 0.66476064 -9.25 0.5 C-8.36828125 0.4071875 -7.4865625 0.314375 -6.578125 0.21875 C-4 0 -4 0 0 0 Z " fill="#A17355" transform="translate(56,25)"/>
<path d="M0 0 C2.64 0.33 5.28 0.66 8 1 C7.8125 3.375 7.8125 3.375 7 6 C3.72271751 7.86007925 1.8340246 8 -2 8 C-2 7.34 -2 6.68 -2 6 C-1.34 6 -0.68 6 0 6 C0 4.02 0 2.04 0 0 Z " fill="#AC7347" transform="translate(39,59)"/>
<path d="M0 0 C0.33 1.65 0.66 3.3 1 5 C-0.98 5.99 -0.98 5.99 -3 7 C-5.04119788 5.38405168 -7.04072937 3.7143618 -9 2 C-9 1.34 -9 0.68 -9 0 C-5.52176885 -1.15941038 -3.54104422 -0.70820884 0 0 Z " fill="#CE9D74" transform="translate(48,68)"/>
<path d="M0 0 C0 0.66 0 1.32 0 2 C-2.31 2.33 -4.62 2.66 -7 3 C-7 3.66 -7 4.32 -7 5 C-6.34 5.33 -5.68 5.66 -5 6 C-7.64 6.33 -10.28 6.66 -13 7 C-10.19437209 -0.98524866 -8.01566637 -1.44544803 0 0 Z " fill="#6E402E" transform="translate(52,36)"/>
<path d="M0 0 C1.32 0.66 2.64 1.32 4 2 C4 3.32 4 4.64 4 6 C2.35 6.66 0.7 7.32 -1 8 C-1 7.34 -1 6.68 -1 6 C-3.31 5.67 -5.62 5.34 -8 5 C-8 4.34 -8 3.68 -8 3 C-6.68 3 -5.36 3 -4 3 C-3.67 2.34 -3.34 1.68 -3 1 C-1.68 1.66 -0.36 2.32 1 3 C0.67 2.01 0.34 1.02 0 0 Z " fill="#9C6853" transform="translate(53,36)"/>
<path d="M0 0 C0.33 0 0.66 0 1 0 C1.33 1.98 1.66 3.96 2 6 C2.99 5.67 3.98 5.34 5 5 C5 5.66 5 6.32 5 7 C5.99 7 6.98 7 8 7 C8 7.99 8 8.98 8 10 C5.35261084 11.4606285 4.10551666 12 1 12 C-0.26237731 9.47524538 -0.09856404 7.68799534 -0.0625 4.875 C-0.05347656 3.96492188 -0.04445313 3.05484375 -0.03515625 2.1171875 C-0.02355469 1.41851563 -0.01195313 0.71984375 0 0 Z " fill="#906957" transform="translate(29,28)"/>
<path d="M0 0 C6.1006858 1.91735839 9.44776716 5.64487011 12.375 11.1875 C13.3984375 13.23046875 13.3984375 13.23046875 14 15 C13.67 15.66 13.34 16.32 13 17 C11.70376621 15.42040347 10.41318673 13.83616587 9.125 12.25 C8.40570313 11.36828125 7.68640625 10.4865625 6.9453125 9.578125 C5.30805509 7.40826578 4.15432616 5.43691078 3 3 C1.4587688 1.29078411 1.4587688 1.29078411 0 0 Z " fill="#2E372C" transform="translate(7,75)"/>
<path d="M0 0 C0.763125 0.20625 1.52625 0.4125 2.3125 0.625 C1.9825 1.615 1.6525 2.605 1.3125 3.625 C-0.3375 3.295 -1.9875 2.965 -3.6875 2.625 C-3.80867188 3.46804687 -3.92984375 4.31109375 -4.0546875 5.1796875 C-4.22226562 6.27539062 -4.38984375 7.37109375 -4.5625 8.5 C-4.72492187 9.59054688 -4.88734375 10.68109375 -5.0546875 11.8046875 C-5.6875 14.625 -5.6875 14.625 -7.6875 16.625 C-6.57888782 4.47744103 -6.57888782 4.47744103 -5.6875 1.625 C-2.6875 -0.375 -2.6875 -0.375 0 0 Z " fill="#161A16" transform="translate(60.6875,69.375)"/>
<path d="M0 0 C2.64 0.99 5.28 1.98 8 3 C8 3.33 8 3.66 8 4 C5.69 3.67 3.38 3.34 1 3 C1.03955898 4.92309422 1.03955898 4.92309422 2 7 C4.98352894 8.78379415 4.98352894 8.78379415 8 10 C8 10.66 8 11.32 8 12 C2.25 11.25 2.25 11.25 0 9 C-0.62931533 6.32404177 -0.78130812 3.75551768 -1 1 C-0.67 0.67 -0.34 0.34 0 0 Z " fill="#864E30" transform="translate(38,47)"/>
<path d="M0 0 C0.66 0 1.32 0 2 0 C2.66 2.64 3.32 5.28 4 8 C3.34 8 2.68 8 2 8 C2 10.31 2 12.62 2 15 C1.34 14.67 0.68 14.34 0 14 C-1.29970403 9.71097669 -1.14788965 5.43668936 -1 1 C-0.67 0.67 -0.34 0.34 0 0 Z " fill="#8D5B3F" transform="translate(36,40)"/>
<path d="M0 0 C0.33 0 0.66 0 1 0 C1 2.64 1 5.28 1 8 C-1.375 8.625 -1.375 8.625 -4 9 C-6 7 -6 7 -8 4 C-6.68 4 -5.36 4 -4 4 C-1.81222534 2.0624994 -1.81222534 2.0624994 0 0 Z " fill="#434B3F" transform="translate(27,64)"/>
<path d="M0 0 C1.2077558 3.62326739 0.54311128 4.64146369 -1 8 C-3.31 8 -5.62 8 -8 8 C-7.67 5.69 -7.34 3.38 -7 1 C-4 2 -4 2 -3 4 C-2.01 2.68 -1.02 1.36 0 0 Z " fill="#282F26" transform="translate(87,88)"/>
<path d="M0 0 C3 1 3 1 4.16796875 2.671875 C7.55343511 9.57251908 7.55343511 9.57251908 7 14 C3.87739966 11.44514517 3.24963708 8.74891123 2 5 C0.50113129 3.16310524 0.50113129 3.16310524 -1 2 C-0.67 1.34 -0.34 0.68 0 0 Z " fill="#32382F" transform="translate(64,61)"/>
<path d="M0 0 C0.66 0 1.32 0 2 0 C2.33 2.31 2.66 4.62 3 7 C2.01 7 1.02 7 0 7 C0 8.32 0 9.64 0 11 C0.99 11 1.98 11 3 11 C3 11.66 3 12.32 3 13 C1.125 12.875 1.125 12.875 -1 12 C-2.25 8.9375 -2.25 8.9375 -3 6 C-2.01 6 -1.02 6 0 6 C0 4.02 0 2.04 0 0 Z " fill="#4C4735" transform="translate(32,57)"/>
<path d="M0 0 C1.98 0 3.96 0 6 0 C7.04449911 3.13349732 6.93423645 3.98968256 6 7 C3.5625 6.3125 3.5625 6.3125 1 5 C0.1875 2.375 0.1875 2.375 0 0 Z " fill="#323C31" transform="translate(65,88)"/>
<path d="M0 0 C0.66 0.99 1.32 1.98 2 3 C2.66 2.67 3.32 2.34 4 2 C3.67 5.3 3.34 8.6 3 12 C1.68 12.33 0.36 12.66 -1 13 C-1.0272415 11.58344207 -1.04650467 10.16672955 -1.0625 8.75 C-1.07410156 7.96109375 -1.08570312 7.1721875 -1.09765625 6.359375 C-1.00385306 4.09308998 -0.63241063 2.1711105 0 0 Z " fill="#2F382D" transform="translate(79,69)"/>
<path d="M0 0 C2.64 0 5.28 0 8 0 C7.67 0.66 7.34 1.32 7 2 C6.01 2.33 5.02 2.66 4 3 C4 3.99 4 4.98 4 6 C2.68 6 1.36 6 0 6 C0 5.34 0 4.68 0 4 C-0.66 4 -1.32 4 -2 4 C-1.34 2.68 -0.68 1.36 0 0 Z " fill="#6B4432" transform="translate(52,27)"/>
<path d="M0 0 C8.20234807 7.98066298 8.20234807 7.98066298 9 15 C6.36780237 12.61848786 4.80771642 10.03696359 3 7 C1.68962066 5.31522656 0.36176922 3.64351457 -1 2 C-0.67 1.34 -0.34 0.68 0 0 Z " fill="#4B5649" transform="translate(11,73)"/>
<path d="M0 0 C-0.75 6.625 -0.75 6.625 -3 10 C-3.99 9.67 -4.98 9.34 -6 9 C-5.67 8.401875 -5.34 7.80375 -5 7.1875 C-3.79212012 4.94613529 -3.79212012 4.94613529 -4 2 C-4.99 1.67 -5.98 1.34 -7 1 C-1.125 0 -1.125 0 0 0 Z " fill="#C18E61" transform="translate(52,66)"/>
<path d="M0 0 C3.63 0 7.26 0 11 0 C10.67 1.32 10.34 2.64 10 4 C8.35 3.67 6.7 3.34 5 3 C5 3.66 5 4.32 5 5 C4.01 4.67 3.02 4.34 2 4 C2.33 3.34 2.66 2.68 3 2 C2.01 2 1.02 2 0 2 C0 1.34 0 0.68 0 0 Z " fill="#B78266" transform="translate(49,34)"/>
<path d="M0 0 C1.32 0 2.64 0 4 0 C6.56687367 3.8503105 5.83288724 5.58569763 5 10 C4.01 10 3.02 10 2 10 C1.375 8.125 1.375 8.125 1 6 C1.66 5.34 2.32 4.68 3 4 C2.01 2.68 1.02 1.36 0 0 Z " fill="#35302B" transform="translate(59,18)"/>
<path d="M0 0 C0.99 0.495 0.99 0.495 2 1 C2 1.66 2 2.32 2 3 C3.32 2.01 4.64 1.02 6 0 C6.33 1.32 6.66 2.64 7 4 C6.01 4.33 5.02 4.66 4 5 C4.33 6.98 4.66 8.96 5 11 C4.01 11.495 4.01 11.495 3 12 C2.49440092 10.56445975 1.9957251 9.1264798 1.5 7.6875 C1.2215625 6.88699219 0.943125 6.08648437 0.65625 5.26171875 C0 3 0 3 0 0 Z " fill="#2D342A" transform="translate(21,70)"/>
<path d="M0 0 C0.66 0 1.32 0 2 0 C3.17571451 3.67410785 3.07366746 7.16929183 3 11 C2.01 11 1.02 11 0 11 C0 7.37 0 3.74 0 0 Z " fill="#E0DEDC" transform="translate(0,85)"/>
<path d="M0 0 C0.33 0 0.66 0 1 0 C1.33 1.65 1.66 3.3 2 5 C2.66 4.67 3.32 4.34 4 4 C3.01 6.97 2.02 9.94 1 13 C-1.3638665 8.27226701 -1.25393971 6.16344069 -1 1 C-0.67 0.67 -0.34 0.34 0 0 Z " fill="#171A15" transform="translate(76,79)"/>
<path d="M0 0 C2.29013653 3.4352048 2.17842973 4.985331 2 9 C1.34 8.67 0.68 8.34 0 8 C-0.99 9.485 -0.99 9.485 -2 11 C-2.66 10.67 -3.32 10.34 -4 10 C-3.29445932 6.33118845 -1.72264494 3.29549466 0 0 Z " fill="#3E493B" transform="translate(79,65)"/>
<path d="M0 0 C0.66 0.66 1.32 1.32 2 2 C1.525625 2.680625 1.05125 3.36125 0.5625 4.0625 C-1.2225636 7.41841956 -1.63153086 10.24161481 -2 14 C-2.66 14 -3.32 14 -4 14 C-3.66009167 8.62007164 -3.31442207 4.46726453 0 0 Z " fill="#485244" transform="translate(77,65)"/>
<path d="M0 0 C0.33 0 0.66 0 1 0 C1 5.28 1 10.56 1 16 C0.34 16 -0.32 16 -1 16 C-2.125 12.25 -2.125 12.25 -1 10 C-0.77377919 8.29636178 -0.59111527 6.58671299 -0.4375 4.875 C-0.35371094 3.96492188 -0.26992188 3.05484375 -0.18359375 2.1171875 C-0.12300781 1.41851562 -0.06242187 0.71984375 0 0 Z " fill="#323930" transform="translate(46,80)"/>
<path d="M0 0 C0.33 0.66 0.66 1.32 1 2 C-2.04386724 2.08226668 -4.07175348 1.97608217 -7 1 C-8.66362417 0.65179959 -10.32995171 0.31595508 -12 0 C-12 -0.33 -12 -0.66 -12 -1 C-3.23741007 -2.46043165 -3.23741007 -2.46043165 0 0 Z " fill="#101310" transform="translate(39,73)"/>
<path d="M0 0 C1.60226148 4.00565371 0.47694566 7.08609399 -1 11 C-1.99 11.33 -2.98 11.66 -4 12 C-3.45660208 7.43545749 -2.20536179 4.0271824 0 0 Z " fill="#3F2C23" transform="translate(57,58)"/>
<path d="M0 0 C2.97 0.33 5.94 0.66 9 1 C9 1.33 9 1.66 9 2 C7.35 2.33 5.7 2.66 4 3 C3.67 4.65 3.34 6.3 3 8 C1.5268006 5.25002779 0.77595125 3.10380501 0 0 Z " fill="#5D6255" transform="translate(70,61)"/>
<path d="M0 0 C1.14926266 0.95421808 2.29430541 1.91352045 3.4375 2.875 C4.07558594 3.40867187 4.71367188 3.94234375 5.37109375 4.4921875 C7 6 7 6 8 8 C2.58860759 7.39873418 2.58860759 7.39873418 0.0625 5.6875 C-1 4 -1 4 -0.56640625 1.89453125 C-0.37949219 1.26933594 -0.19257812 0.64414063 0 0 Z " fill="#54575B" transform="translate(37,67)"/>
<path d="M0 0 C0.66 0 1.32 0 2 0 C2 2.97 2 5.94 2 9 C1.01 9.33 0.02 9.66 -1 10 C-1.08004482 6.4780279 -1.04005702 3.38018531 0 0 Z " fill="#494D41" transform="translate(48,86)"/>
<path d="M0 0 C1.32 0.33 2.64 0.66 4 1 C4 3.97 4 6.94 4 10 C1.81024227 6.71536341 1.00193437 3.79303725 0 0 Z " fill="#494F44" transform="translate(41,78)"/>
<path d="M0 0 C1.485 0.99 1.485 0.99 3 2 C3 2.66 3 3.32 3 4 C3.66 4 4.32 4 5 4 C5.33 4.99 5.66 5.98 6 7 C4.35 7.33 2.7 7.66 1 8 C0.67 5.36 0.34 2.72 0 0 Z " fill="#636B5A" transform="translate(86,66)"/>
<path d="M0 0 C1.9375 0.3125 1.9375 0.3125 4 1 C4.33 1.99 4.66 2.98 5 4 C4.01 4.495 4.01 4.495 3 5 C2.34 4.67 1.68 4.34 1 4 C1 4.66 1 5.32 1 6 C-0.32 5.67 -1.64 5.34 -3 5 C-2.34 4.67 -1.68 4.34 -1 4 C-0.34786708 1.97536745 -0.34786708 1.97536745 0 0 Z " fill="#AB6F4D" transform="translate(48,30)"/>
<path d="M0 0 C3.96 0 7.92 0 12 0 C11.67 0.99 11.34 1.98 11 3 C8.9375 3.6875 8.9375 3.6875 7 4 C7.33 3.01 7.66 2.02 8 1 C5.36 1 2.72 1 0 1 C0 0.67 0 0.34 0 0 Z " fill="#69442F" transform="translate(42,51)"/>
<path d="M0 0 C0.33 0 0.66 0 1 0 C1 2.97 1 5.94 1 9 C0.67 8.01 0.34 7.02 0 6 C-0.99 5.67 -1.98 5.34 -3 5 C-3 4.01 -3 3.02 -3 2 C-2.01 2 -1.02 2 0 2 C0 1.34 0 0.68 0 0 Z " fill="#9D7865" transform="translate(33,38)"/>
<path d="M0 0 C1.98 0.99 1.98 0.99 4 2 C4 3.32 4 4.64 4 6 C2.68 6.33 1.36 6.66 0 7 C0 4.69 0 2.38 0 0 Z " fill="#895740" transform="translate(53,36)"/>
<path d="M0 0 C0.33 0.66 0.66 1.32 1 2 C0.34 2 -0.32 2 -1 2 C-0.67 2.99 -0.34 3.98 0 5 C-2.31 5.33 -4.62 5.66 -7 6 C-7 5.01 -7 4.02 -7 3 C-4.69 2.01 -2.38 1.02 0 0 Z " fill="#1A1815" transform="translate(44,17)"/>
<path d="M0 0 C0 0.66 0 1.32 0 2 C-3.465 3.485 -3.465 3.485 -7 5 C-7.33 4.01 -7.66 3.02 -8 2 C-5.09399739 0.74335022 -3.20395416 0 0 0 Z " fill="#322C27" transform="translate(44,16)"/>
<path d="M0 0 C2.86724686 0.57344937 3.8614515 0.8614515 6 3 C5.67 3.99 5.34 4.98 5 6 C2.5 4.6875 2.5 4.6875 0 3 C0 2.01 0 1.02 0 0 Z " fill="#292621" transform="translate(57,14)"/>
<path d="M0 0 C2.4375 0.75 2.4375 0.75 5 2 C5.8125 4.125 5.8125 4.125 6 6 C5.01 6.495 5.01 6.495 4 7 C0 2.25 0 2.25 0 0 Z " fill="#596151" transform="translate(81,63)"/>
<path d="M0 0 C2.64 0.33 5.28 0.66 8 1 C8.33 1.99 8.66 2.98 9 4 C8.01 4.33 7.02 4.66 6 5 C5.67 4.34 5.34 3.68 5 3 C3.35636866 2.27840576 1.68949614 1.60648579 0 1 C0 0.67 0 0.34 0 0 Z " fill="#242620" transform="translate(61,59)"/>
<path d="M0 0 C2.64 0.99 5.28 1.98 8 3 C8 3.33 8 3.66 8 4 C5.69 3.67 3.38 3.34 1 3 C0.67 3.99 0.34 4.98 0 6 C-0.38218767 4.34385343 -0.71395102 2.67542976 -1 1 C-0.67 0.67 -0.34 0.34 0 0 Z " fill="#7C4E37" transform="translate(38,47)"/>
<path d="M0 0 C0.66 0.33 1.32 0.66 2 1 C2.1875 3.875 2.1875 3.875 2 7 C1.01 7.66 0.02 8.32 -1 9 C-0.67 6.03 -0.34 3.06 0 0 Z " fill="#394337" transform="translate(55,78)"/>
<path d="M0 0 C0.598125 0.350625 1.19625 0.70125 1.8125 1.0625 C-1.1875 3.0625 -1.1875 3.0625 -4.1875 3.0625 C-4.5175 2.0725 -4.8475 1.0825 -5.1875 0.0625 C-2.1875 -0.9375 -2.1875 -0.9375 0 0 Z " fill="#313A32" transform="translate(34.1875,73.9375)"/>
<path d="M0 0 C0.66 0 1.32 0 2 0 C2 1.32 2 2.64 2 4 C2.99 4.33 3.98 4.66 5 5 C5 5.99 5 6.98 5 8 C4.01 8 3.02 8 2 8 C1.34 5.36 0.68 2.72 0 0 Z " fill="#89583A" transform="translate(33,56)"/>
<path d="M0 0 C1.98 0 3.96 0 6 0 C5.67 0.99 5.34 1.98 5 3 C2.03 2.505 2.03 2.505 -1 2 C-0.67 1.34 -0.34 0.68 0 0 Z " fill="#4D2C1D" transform="translate(44,52)"/>
<path d="M0 0 C1.98 0 3.96 0 6 0 C5.67 0.99 5.34 1.98 5 3 C3.35 3 1.7 3 0 3 C0 2.01 0 1.02 0 0 Z " fill="#B27B5C" transform="translate(37,35)"/>
</svg>
